<?xml version="1.0" standalone="no"?>
<!DOCTYPE svg PUBLIC "-//W3C//DTD SVG 20010904//EN"
 "http://www.w3.org/TR/2001/REC-SVG-20010904/DTD/svg10.dtd">
<svg version="1.0" xmlns="http://www.w3.org/2000/svg"
 width="260.000000pt" height="260.000000pt" viewBox="0 0 260.000000 260.000000"
 preserveAspectRatio="xMidYMid meet">
<metadata>
Created by potrace 1.14, written by Peter Selinger 2001-2017
</metadata>
<g transform="translate(0.000000,260.000000) scale(0.100000,-0.100000)"
fill="#000000" stroke="none">
<path d="M0 1300 l0 -1300 1300 0 1300 0 0 1300 0 1300 -1300 0 -1300 0 0
-1300z m1495 720 c4 -6 108 -304 231 -663 124 -358 236 -682 249 -720 l25 -67
-167 2 -167 3 -52 160 -53 160 -264 3 -263 2 -53 -165 -53 -165 -164 0 c-90 0
-164 2 -164 4 0 4 422 1227 472 1369 l31 87 193 0 c120 0 195 -4 199 -10z"/>
<path d="M1206 1426 c-47 -145 -86 -269 -86 -275 0 -8 56 -11 181 -11 141 0
180 3 177 13 -3 6 -42 130 -89 274 -46 145 -87 263 -91 263 -4 0 -45 -119 -92
-264z"/>
</g>
</svg>
